<?xml version="1.0" encoding="utf-8"?>
<!-- Generator: Adobe Illustrator 16.0.4, SVG Export Plug-In . SVG Version: 6.00 Build 0)  -->
<!DOCTYPE svg PUBLIC "-//W3C//DTD SVG 1.1//EN" "http://www.w3.org/Graphics/SVG/1.1/DTD/svg11.dtd">
<svg version="1.1" id="Layer_1" xmlns="http://www.w3.org/2000/svg" xmlns:xlink="http://www.w3.org/1999/xlink" x="0px" y="0px"
	 width="1179.21px" height="311.81px" viewBox="0 0 1179.21 311.81" enable-background="new 0 0 1179.21 311.81"
	 xml:space="preserve">
<g>
	<g>
		<path fill="#211F1F" d="M406.343,183.741c7.008,0,12.111,1.252,15.305,3.752c2.576,2,4.6,4.781,6.066,8.346
			s2.205,7.502,2.205,11.814c0,9.443-2.758,16.35-8.271,20.723c-3.143,2.504-8.244,3.754-15.305,3.754h-21.955v-48.389H406.343z
			 M405.427,190.329h-14.379v35.08h14.379c6.186,0,10.617-1.25,13.295-3.754c2.939-2.689,4.406-7.346,4.406-13.973
			c0-6.375-1.467-10.912-4.406-13.6C415.991,191.583,411.556,190.329,405.427,190.329z"/>
		<path fill="#211F1F" d="M444.864,232.13v-48.389h38.428v6.455h-31.771v13.516h19.398v6.387h-19.398v15.377h32.078v6.654H444.864z"
			/>
		<path fill="#211F1F" d="M497.585,232.13v-48.389h4.172l29.83,32.354c1.445,1.562,2.959,3.598,4.559,6.098
			c-0.414-3.004-0.621-6.973-0.621-11.91v-26.541h6.125v48.389h-3.709l-30.68-33.668c-1.131-1.246-1.777-1.967-1.932-2.154
			c-0.826-1.002-1.521-2.096-2.086-3.283c0.309,2.875,0.463,6.404,0.463,10.598v28.508H497.585z"/>
		<path fill="#211F1F" d="M575.886,190.329v41.801h-6.654v-41.801h-18.238v-6.588h43.223v6.588H575.886z"/>
		<path fill="#211F1F" d="M595.659,232.13l21.807-48.389h7.119l22.193,48.389h-7.346l-5.105-11.914h-26.992l-5.107,11.914H595.659z
			 M610.114,214.028h21.496l-10.75-24.727L610.114,214.028z"/>
		<path fill="#211F1F" d="M657.72,232.13v-48.389h6.656v41.668h30.225v6.721H657.72z"/>
		<path fill="#211F1F" d="M721.786,190.329v41.801h-6.656v-41.801h-18.238v-6.588h43.223v6.588H721.786z"/>
		<path fill="#211F1F" d="M749.341,232.13v-48.389h38.43v6.455h-31.773v13.516h19.402v6.387h-19.402v15.377h32.082v6.654H749.341z"
			/>
		<path fill="#211F1F" d="M801.999,232.13v-48.389h6.656v20.742l24.889-20.742h9.74l-28.916,23.162l32.084,25.227h-11.125
			l-26.672-21.742v21.742H801.999z"/>
		<path fill="#211F1F" d="M856.495,232.13v-48.389h4.172l29.828,32.354c1.445,1.562,2.961,3.598,4.562,6.098
			c-0.414-3.004-0.625-6.973-0.625-11.91v-26.541h6.125v48.389h-3.711l-30.68-33.668c-1.133-1.246-1.777-1.967-1.93-2.154
			c-0.828-1.002-1.523-2.096-2.09-3.283c0.311,2.875,0.465,6.404,0.465,10.598v28.508H856.495z"/>
		<path fill="#211F1F" d="M919.284,232.13v-48.389h6.656v48.389H919.284z"/>
		<path fill="#211F1F" d="M944.726,232.13v-48.389h6.656v20.742l24.891-20.742h9.738l-28.918,23.162l32.086,25.227h-11.125
			l-26.672-21.742v21.742H944.726z"/>
		<path fill="#211F1F" d="M999.159,232.13v-48.389h6.656v20.742l24.887-20.742h9.738l-28.918,23.162l32.09,25.227h-11.129
			l-26.668-21.742v21.742H999.159z"/>
		<path fill="#211F1F" d="M1072.78,232.13l21.809-48.389h7.113l22.203,48.389h-7.348l-5.109-11.914h-26.99l-5.104,11.914H1072.78z
			 M1087.241,214.028h21.496l-10.746-24.727L1087.241,214.028z"/>
		<path fill="#211F1F" d="M1168.927,190.329h-28.289v13.514h25.184c3.613,0,6.066,0.811,7.359,2.436s1.938,4.623,1.938,8.992v5.434
			c0,4.438-0.641,7.449-1.934,9.043c-1.291,1.594-3.742,2.387-7.352,2.387h-23.293c-3.609,0-6.066-0.793-7.383-2.379
			c-1.316-1.588-1.973-4.596-1.973-9.029v-1.312l6.188-1.783v7.783h29.691v-14.512h-25.062c-3.562,0-5.996-0.795-7.312-2.396
			c-1.312-1.598-1.965-4.621-1.965-9.066v-4.227c0-4.508,0.652-7.549,1.969-9.117c1.312-1.566,3.754-2.35,7.312-2.35h21.285
			c3.406,0,5.82,0.752,7.238,2.258s2.129,4.291,2.129,8.365v1.031l-5.727,1.965L1168.927,190.329L1168.927,190.329z"/>
	</g>
	<g>
		<path fill="#211F1F" d="M27.173,50.609c7.041,0,12.162,1.252,15.375,3.752c2.586,2.002,4.619,4.784,6.094,8.346
			c1.475,3.564,2.211,7.504,2.211,11.816c0,9.441-2.77,16.35-8.305,20.726c-3.158,2.5-8.285,3.752-15.375,3.752H5.124V50.609H27.173
			z M26.216,57.199H11.78v35.078h14.438c6.209,0,10.662-1.25,13.355-3.75c2.951-2.69,4.424-7.349,4.424-13.975
			c0-6.378-1.473-10.911-4.424-13.602C36.827,58.451,32.374,57.199,26.216,57.199z"/>
		<path fill="#211F1F" d="M70.772,99.001V50.609h6.654v48.392H70.772z"/>
		<path fill="#211F1F" d="M138.667,57.199h-31.352v35.078h31.352V78.099H122.45v-6.189h22.877v15.654
			c0,4.438-0.66,7.454-1.979,9.046c-1.316,1.592-3.787,2.392-7.404,2.392H110.04c-3.621,0-6.088-0.796-7.406-2.392
			c-1.316-1.595-1.975-4.612-1.975-9.05V62.049c0-4.438,0.658-7.456,1.975-9.048c1.318-1.592,3.789-2.392,7.406-2.392h25.9
			c3.516,0,5.959,0.77,7.326,2.306c1.371,1.538,2.055,4.404,2.055,8.594v1.221l-6.656,1.592v-7.122H138.667z"/>
		<path fill="#211F1F" d="M167.54,99.001V50.609h6.656v48.392H167.54z"/>
		<path fill="#211F1F" d="M213.464,57.199v41.802h-6.656V57.199h-18.303v-6.59h43.377v6.59H213.464z"/>
		<path fill="#211F1F" d="M238.212,99.001l21.895-48.392h7.141l22.285,48.392h-7.375l-5.125-11.916h-27.1l-5.125,11.916H238.212z
			 M252.724,80.896h21.572l-10.787-24.725L252.724,80.896z"/>
		<path fill="#211F1F" d="M305.433,99.001V50.609h6.656v41.668h30.361v6.724H305.433z"/>
	</g>
	
		<line fill="none" stroke="#211F1F" stroke-width="8" stroke-miterlimit="10" x1="383.175" y1="138.589" x2="1174.694" y2="138.589"/>
	<path fill="none" stroke="#211F1F" stroke-width="8" stroke-miterlimit="10" d="M342.942,134.607v173.313 M387.124,3.757v138.734"
		/>
	<line fill="none" stroke="#211F1F" stroke-width="8" stroke-miterlimit="10" x1="3.802" y1="138.589" x2="344.333" y2="138.589"/>
	<path fill="#EC3626" d="M406.522,4.549h767.979v114.719h-767.98L406.522,4.549L406.522,4.549z"/>
	<rect x="3.802" y="157.909" fill="#075FA8" width="320.004" height="114.721"/>
</g>
</svg>
