<?xml version="1.0" encoding="utf-8"?>
<!-- Generator: Adobe Illustrator 16.0.4, SVG Export Plug-In . SVG Version: 6.00 Build 0)  -->
<!DOCTYPE svg PUBLIC "-//W3C//DTD SVG 1.1//EN" "http://www.w3.org/Graphics/SVG/1.1/DTD/svg11.dtd">
<svg version="1.1" id="Layer_1" xmlns="http://www.w3.org/2000/svg" xmlns:xlink="http://www.w3.org/1999/xlink" x="0px" y="0px"
	 width="28.35px" height="28.35px" viewBox="0 0 28.35 28.35" enable-background="new 0 0 28.35 28.35" xml:space="preserve">
<path fill="#FFFFFF" d="M1.232,14.157c0,7.165,5.797,12.961,12.926,12.961c7.164,0,12.961-5.797,12.961-12.961
	c0-7.129-5.797-12.925-12.961-12.925C7.029,1.232,1.232,7.028,1.232,14.157L1.232,14.157z M25.859,14.157
	c0,6.481-5.221,11.702-11.701,11.702c-6.445,0-11.665-5.221-11.665-11.702c0-6.444,5.22-11.665,11.665-11.665
	C20.638,2.492,25.859,7.713,25.859,14.157L25.859,14.157z M19.341,16.461h-2.699V5.589l-1.837-0.145L7.172,16.461v1.908h7.489v4.249
	h1.98v-4.249h2.699V16.461z M14.661,8.361v8.101H9.189L14.661,8.361z"/>
</svg>
