<?xml version="1.0" encoding="utf-8"?>
<!-- Generator: Adobe Illustrator 16.0.4, SVG Export Plug-In . SVG Version: 6.00 Build 0)  -->
<!DOCTYPE svg PUBLIC "-//W3C//DTD SVG 1.1//EN" "http://www.w3.org/Graphics/SVG/1.1/DTD/svg11.dtd">
<svg version="1.1" id="Layer_1" xmlns="http://www.w3.org/2000/svg" xmlns:xlink="http://www.w3.org/1999/xlink" x="0px" y="0px"
	 width="28.35px" height="28.35px" viewBox="0 0 28.35 28.35" enable-background="new 0 0 28.35 28.35" xml:space="preserve">
<path fill="#FFFFFF" d="M1.232,14.156c0,7.165,5.797,12.962,12.925,12.962c7.165,0,12.962-5.797,12.962-12.962
	c0-7.129-5.797-12.925-12.962-12.925C7.029,1.231,1.232,7.028,1.232,14.156L1.232,14.156z M25.858,14.156
	c0,6.481-5.22,11.702-11.701,11.702c-6.444,0-11.664-5.221-11.664-11.702c0-6.445,5.22-11.665,11.664-11.665
	C20.638,2.491,25.858,7.711,25.858,14.156L25.858,14.156z M11.204,10.304c-0.071-1.765,0.864-3.169,2.772-3.169
	c1.944,0,2.952,1.152,2.952,3.061c0,2.017-1.62,2.953-3.456,2.953h-0.612l-0.288-0.037v1.585c0.108-0.035,0.217-0.072,0.36-0.072
	c0.612,0,1.8,0.037,2.376,0.217c1.296,0.324,2.124,1.584,2.124,2.916c0,2.053-1.332,3.24-3.348,3.24c-0.937,0-1.98-0.467-2.521-1.26
	c-0.432-0.611-0.54-1.332-0.54-2.053v-0.252L9.08,17.866L9.044,18.55c0,2.879,2.629,4.32,5.221,4.32c2.88,0,5.364-1.908,5.364-4.934
	c0-1.979-0.936-3.636-2.916-4.14v-0.072c1.692-0.648,2.448-1.873,2.448-3.709c0-2.881-2.448-4.572-5.148-4.572
	s-4.824,1.908-4.752,4.645L11.204,10.304z"/>
</svg>
