<?xml version="1.0" encoding="utf-8"?>
<!-- Generator: Adobe Illustrator 16.0.4, SVG Export Plug-In . SVG Version: 6.00 Build 0)  -->
<!DOCTYPE svg PUBLIC "-//W3C//DTD SVG 1.1//EN" "http://www.w3.org/Graphics/SVG/1.1/DTD/svg11.dtd">
<svg version="1.1" id="Layer_1" xmlns="http://www.w3.org/2000/svg" xmlns:xlink="http://www.w3.org/1999/xlink" x="0px" y="0px"
	 width="28.35px" height="28.35px" viewBox="0 0 28.35 28.35" enable-background="new 0 0 28.35 28.35" xml:space="preserve">
<path fill="#FFFFFF" stroke="#FFFFFF" stroke-miterlimit="10" d="M1.232,14.156c0,7.165,5.797,12.962,12.926,12.962
	c7.164,0,12.961-5.797,12.961-12.962c0-7.128-5.797-12.925-12.961-12.925C7.029,1.232,1.232,7.028,1.232,14.156L1.232,14.156z
	 M25.859,14.156c0,6.481-5.221,11.701-11.701,11.701c-6.445,0-11.665-5.22-11.665-11.701c0-6.444,5.22-11.665,11.665-11.665
	C20.638,2.491,25.859,7.712,25.859,14.156L25.859,14.156z"/>
<g>
	<path fill="#FFFFFF" d="M8.229,18.56l3.281-0.34c0.094,0.742,0.371,1.33,0.832,1.764s0.992,0.65,1.594,0.65
		c0.688,0,1.27-0.279,1.746-0.838s0.715-1.4,0.715-2.525c0-1.055-0.236-1.846-0.709-2.373s-1.088-0.791-1.846-0.791
		c-0.945,0-1.793,0.418-2.543,1.254l-2.672-0.387l1.688-8.941h8.707v3.082h-6.211l-0.516,2.918c0.734-0.367,1.484-0.551,2.25-0.551
		c1.461,0,2.699,0.531,3.715,1.594s1.523,2.441,1.523,4.137c0,1.414-0.41,2.676-1.23,3.785c-1.117,1.516-2.668,2.273-4.652,2.273
		c-1.586,0-2.879-0.426-3.879-1.277S8.424,19.997,8.229,18.56z"/>
</g>
</svg>
