<?xml version="1.0" encoding="utf-8"?>
<!-- Generator: Adobe Illustrator 16.0.4, SVG Export Plug-In . SVG Version: 6.00 Build 0)  -->
<!DOCTYPE svg PUBLIC "-//W3C//DTD SVG 1.1//EN" "http://www.w3.org/Graphics/SVG/1.1/DTD/svg11.dtd">
<svg version="1.1" id="Layer_1" xmlns="http://www.w3.org/2000/svg" xmlns:xlink="http://www.w3.org/1999/xlink" x="0px" y="0px"
	 width="28.35px" height="28.35px" viewBox="0 0 28.35 28.35" enable-background="new 0 0 28.35 28.35" xml:space="preserve">
<path fill="#FFFFFF" stroke="#FFFFFF" stroke-miterlimit="10" d="M1.232,14.156c0,7.165,5.797,12.962,12.925,12.962
	c7.165,0,12.962-5.797,12.962-12.962c0-7.128-5.797-12.925-12.962-12.925C7.029,1.232,1.232,7.028,1.232,14.156L1.232,14.156z
	 M25.858,14.156c0,6.48-5.22,11.701-11.701,11.701c-6.444,0-11.664-5.221-11.664-11.701c0-6.444,5.22-11.665,11.664-11.665
	C20.638,2.491,25.858,7.712,25.858,14.156L25.858,14.156z M14.085,5.696c-0.468,2.34-2.124,2.592-4.356,2.628V9.8h3.492v12.817
	h2.232V5.696H14.085z"/>
</svg>
