<?xml version="1.0" encoding="utf-8"?>
<!-- Generator: Adobe Illustrator 16.0.4, SVG Export Plug-In . SVG Version: 6.00 Build 0)  -->
<!DOCTYPE svg PUBLIC "-//W3C//DTD SVG 1.1//EN" "http://www.w3.org/Graphics/SVG/1.1/DTD/svg11.dtd">
<svg version="1.1" id="Layer_1" xmlns="http://www.w3.org/2000/svg" xmlns:xlink="http://www.w3.org/1999/xlink" x="0px" y="0px"
	 width="28.35px" height="28.35px" viewBox="0 0 28.35 28.35" enable-background="new 0 0 28.35 28.35" xml:space="preserve">
<path fill="#FFFFFF" d="M1.232,14.157c0,7.164,5.797,12.961,12.925,12.961c7.165,0,12.961-5.797,12.961-12.961
	c0-7.129-5.797-12.925-12.961-12.925C7.029,1.232,1.232,7.029,1.232,14.157L1.232,14.157z M25.859,14.157
	c0,6.48-5.221,11.701-11.702,11.701c-6.445,0-11.665-5.221-11.665-11.701c0-6.445,5.22-11.665,11.665-11.665
	C20.638,2.492,25.859,7.712,25.859,14.157L25.859,14.157z M19.341,20.782h-8.136c0.54-1.261,1.8-2.018,2.88-2.736
	c2.736-1.836,5.508-3.564,5.508-7.273c0-3.204-2.556-5.293-5.652-5.293c-2.988,0-5.329,2.232-5.329,5.258l0.036,0.576l2.16,0.18
	v-0.396c0-1.943,0.864-3.816,3.096-3.816c2.125,0,3.348,1.621,3.348,3.672c0,2.809-2.124,4.141-4.212,5.51
	c-1.98,1.26-4.177,3.096-4.177,5.615l0.036,0.541h10.44V20.782z"/>
</svg>
