<?xml version="1.0" encoding="utf-8"?>
<!-- Generator: Adobe Illustrator 16.0.4, SVG Export Plug-In . SVG Version: 6.00 Build 0)  -->
<!DOCTYPE svg PUBLIC "-//W3C//DTD SVG 1.1//EN" "http://www.w3.org/Graphics/SVG/1.1/DTD/svg11.dtd">
<svg version="1.1" id="Layer_1" xmlns="http://www.w3.org/2000/svg" xmlns:xlink="http://www.w3.org/1999/xlink" x="0px" y="0px"
	 width="28.35px" height="28.35px" viewBox="0 0 28.35 28.35" enable-background="new 0 0 28.35 28.35" xml:space="preserve">
<path fill="#FFFFFF" stroke="#FFFFFF" stroke-miterlimit="10" d="M1.232,14.156c0,7.165,5.797,12.962,12.926,12.962
	c7.164,0,12.961-5.797,12.961-12.962c0-7.128-5.797-12.925-12.961-12.925C7.029,1.232,1.232,7.028,1.232,14.156L1.232,14.156z
	 M25.859,14.156c0,6.481-5.221,11.701-11.701,11.701c-6.445,0-11.665-5.22-11.665-11.701c0-6.444,5.22-11.665,11.665-11.665
	C20.638,2.491,25.859,7.712,25.859,14.156L25.859,14.156z"/>
<g>
	<path fill="#FFFFFF" d="M19.953,19.036v3.059H8.41c0.125-1.156,0.5-2.252,1.125-3.287s1.859-2.408,3.703-4.119
		c1.484-1.383,2.395-2.32,2.73-2.812c0.453-0.68,0.68-1.352,0.68-2.016c0-0.734-0.197-1.299-0.592-1.693s-0.939-0.592-1.635-0.592
		c-0.688,0-1.234,0.207-1.641,0.621s-0.641,1.102-0.703,2.062L8.797,9.931c0.195-1.812,0.809-3.113,1.84-3.902
		s2.32-1.184,3.867-1.184c1.695,0,3.027,0.457,3.996,1.371s1.453,2.051,1.453,3.41c0,0.773-0.139,1.51-0.416,2.209
		s-0.717,1.432-1.318,2.197c-0.398,0.508-1.117,1.238-2.156,2.191s-1.697,1.586-1.975,1.898s-0.502,0.617-0.674,0.914H19.953z"/>
</g>
</svg>
