<?xml version="1.0" encoding="utf-8"?>
<!-- Generator: Adobe Illustrator 16.0.4, SVG Export Plug-In . SVG Version: 6.00 Build 0)  -->
<!DOCTYPE svg PUBLIC "-//W3C//DTD SVG 1.1//EN" "http://www.w3.org/Graphics/SVG/1.1/DTD/svg11.dtd">
<svg version="1.1" id="Layer_1" xmlns="http://www.w3.org/2000/svg" xmlns:xlink="http://www.w3.org/1999/xlink" x="0px" y="0px"
	 width="28.35px" height="28.35px" viewBox="0 0 28.35 28.35" enable-background="new 0 0 28.35 28.35" xml:space="preserve">
<path fill="#FFFFFF" stroke="#FFFFFF" stroke-miterlimit="10" d="M1.232,14.156c0,7.165,5.797,12.961,12.926,12.961
	c7.164,0,12.961-5.796,12.961-12.961c0-7.129-5.797-12.925-12.961-12.925C7.029,1.232,1.232,7.028,1.232,14.156L1.232,14.156z
	 M25.859,14.156c0,6.48-5.221,11.701-11.701,11.701c-6.445,0-11.665-5.221-11.665-11.701c0-6.444,5.22-11.665,11.665-11.665
	C20.638,2.491,25.859,7.712,25.859,14.156L25.859,14.156z M11.204,10.304c-0.071-1.764,0.864-3.168,2.772-3.168
	c1.944,0,2.952,1.152,2.952,3.061c0,2.016-1.62,2.952-3.456,2.952h-0.612l-0.287-0.036v1.584c0.107-0.036,0.216-0.072,0.359-0.072
	c0.612,0,1.801,0.036,2.376,0.217c1.296,0.323,2.124,1.584,2.124,2.916c0,2.052-1.332,3.24-3.348,3.24
	c-0.937,0-1.98-0.468-2.521-1.26c-0.432-0.612-0.54-1.332-0.54-2.053v-0.252L9.08,17.865l-0.036,0.684c0,2.88,2.628,4.32,5.22,4.32
	c2.881,0,5.365-1.908,5.365-4.933c0-1.979-0.937-3.636-2.917-4.14v-0.072c1.692-0.648,2.448-1.873,2.448-3.709
	c0-2.88-2.448-4.572-5.148-4.572s-4.824,1.908-4.752,4.645L11.204,10.304z"/>
</svg>
