<?xml version="1.0" encoding="utf-8"?>
<!-- Generator: Adobe Illustrator 16.0.4, SVG Export Plug-In . SVG Version: 6.00 Build 0)  -->
<!DOCTYPE svg PUBLIC "-//W3C//DTD SVG 1.1//EN" "http://www.w3.org/Graphics/SVG/1.1/DTD/svg11.dtd">
<svg version="1.1" id="Layer_1" xmlns="http://www.w3.org/2000/svg" xmlns:xlink="http://www.w3.org/1999/xlink" x="0px" y="0px"
	 width="28.35px" height="28.35px" viewBox="0 0 28.35 28.35" enable-background="new 0 0 28.35 28.35" xml:space="preserve">
<path fill="#FFFFFF" d="M1.232,14.156c0,7.165,5.797,12.962,12.925,12.962c7.165,0,12.962-5.797,12.962-12.962
	c0-7.128-5.797-12.925-12.962-12.925C7.029,1.232,1.232,7.029,1.232,14.156L1.232,14.156z M25.858,14.156
	c0,6.481-5.22,11.701-11.701,11.701c-6.444,0-11.664-5.22-11.664-11.701c0-6.444,5.22-11.665,11.664-11.665
	C20.638,2.492,25.858,7.712,25.858,14.156L25.858,14.156z M9.656,5.697v9.685h1.62c0.288-1.656,1.368-2.88,3.168-2.88
	c1.152,0,2.305,0.647,2.881,1.655c0.359,0.648,0.396,1.44,0.396,2.16c0,2.413-0.72,4.753-3.528,4.753
	c-1.584,0-2.988-1.332-2.916-2.952l-1.872,0.432c0.144,2.629,2.232,4.32,4.824,4.32c3.709,0,5.761-2.988,5.761-6.48
	c0-2.916-1.944-5.58-5.04-5.58c-1.333,0-2.772,0.324-3.457,1.548V7.605h6.985V5.697H9.656z"/>
</svg>
