<?xml version="1.0" encoding="utf-8"?>
<!-- Generator: Adobe Illustrator 16.0.4, SVG Export Plug-In . SVG Version: 6.00 Build 0)  -->
<!DOCTYPE svg PUBLIC "-//W3C//DTD SVG 1.1//EN" "http://www.w3.org/Graphics/SVG/1.1/DTD/svg11.dtd">
<svg version="1.1" id="Layer_1" xmlns="http://www.w3.org/2000/svg" xmlns:xlink="http://www.w3.org/1999/xlink" x="0px" y="0px"
	 width="708.66px" height="198.43px" viewBox="0 0 708.66 198.43" enable-background="new 0 0 708.66 198.43" xml:space="preserve">
<g>
	<g>
		<path fill="#221F1F" d="M640.713,13.039l0.998,0.108c12.58,3.334,23.492,5.92,31.516,12.713l-23.414,13.315l-51.156,28.736
			c-1.33-3.996-1.607-9.154-3.713-13.313c-9.715,1.721-19.865,2.553-28.244,7.489c1.053,1.998,6.381,1.998,4.773,5.324
			c-12.484-5.877-26.189-8.925-41.006-9.095l-1.053,1.611c-0.111,8.153-1.811,14.622-1.074,22.764l0.02,2.255
			c1.166,7.876,1.723,15.984,3.717,23.474c-15.865-7.996-30.627-24.915-30.348-43.67c4.496-33.954,39.947-45.826,67.637-53.263
			C592.555,7.215,618.244,7.717,640.713,13.039L640.713,13.039z"/>
		<path fill="#221F1F" d="M695.09,43.944c7.434,10.654,10.875,28.242,3.164,39.952c-22.916,36.115-64.305,40.892-104.924,40.999
			h-1.055c6.938-14.365,9.047-31.956,6.381-48.991c-8.764,3.326-16.756,8.379-25.576,11.713c-0.666-0.231-0.496-1.063-0.496-1.558
			l37.779-18.647l71.41-35.727C687.322,32.903,691.65,39.229,695.09,43.944L695.09,43.944z"/>
		<path fill="#919395" d="M574.689,122.79c-6.938-1.614-13.873-3.219-20.75-4.776l7.434-11.204
			C565.758,111.192,570.586,117.734,574.689,122.79L574.689,122.79z"/>
		<path fill="#919395" d="M445.693,120.031h4.117l3.562,7.403c0.932,1.977,1.658,3.914,2.029,5.249
			c-0.133-1.438-0.268-3.813-0.295-5.088l-0.076-7.564h3.527v18.511h-3.875l-3.186-7.083c-1.016-2.318-2.168-4.927-2.518-6.078
			c0.139,1.525,0.16,3.706,0.188,5.251l0.107,7.91h-3.582V120.031L445.693,120.031z"/>
		<path fill="#919395" d="M474.967,125.011c0.318,1.042,0.48,2.402,0.48,4.3c0,4.72-1.09,6.699-3.662,6.699
			c-0.879,0-1.621-0.218-2.207-0.644c-1.086-0.826-1.645-2.799-1.645-6.001c0-2.242,0.295-3.867,0.932-5.073
			c0.498-0.989,1.615-1.627,2.863-1.627C473.693,122.665,474.674,124.081,474.967,125.011L474.967,125.011z M467.961,120.695
			c-2.637,1.47-4.18,4.666-4.18,8.67c0,2.721,0.717,5.066,2.129,6.882c1.41,1.833,3.217,2.606,6.006,2.606
			c1.541,0,2.572-0.237,3.689-0.846c2.658-1.498,4.125-4.618,4.125-8.805c0-5.812-3.035-9.417-7.945-9.417
			C470.4,119.786,469.047,120.105,467.961,120.695L467.961,120.695z"/>
		<path fill="#919395" d="M489.896,123.013c0.902,0,1.672,0.114,2.1,0.27c0.875,0.346,1.326,1.119,1.326,2.262
			c0,0.772-0.266,1.443-0.719,1.863c-0.506,0.453-1.197,0.616-2.791,0.616h-1.248l0.025-5.011H489.896L489.896,123.013z
			 M484.93,138.542h3.635v-7.728c0.289,0.034,0.398,0.088,0.584,0.162c0.637,0.325,1.223,1.199,3.057,4.523
			c0.717,1.309,1.01,1.816,1.73,3.042h4.393c0,0-3.381-5.858-4.447-7.193c-0.238-0.317-0.4-0.474-0.773-0.764
			c2.293-0.057,4.127-2.352,4.127-5.116c0-3.257-2.156-5.438-5.426-5.438l-6.879-0.026V138.542L484.93,138.542z"/>
		<path fill="#919395" d="M515.178,121.888l-1.971,2.31c-1.199-0.984-2.449-1.437-3.857-1.437c-1.09,0-2.023,0.319-2.662,0.934
			c-1.248,1.193-1.568,3.185-1.568,5.949c0,2.64,0.451,4.34,1.383,5.275c0.689,0.663,1.703,1.034,2.898,1.034
			c0.826,0,1.49-0.133,2.104-0.453v-4.205h-2.824l-0.475-3.035h7.156v8.84c-1.887,1.117-3.963,1.653-6.146,1.653
			c-2.77,0-4.812-0.909-6.303-2.824c-1.359-1.729-1.971-3.699-1.971-6.468c0-3.909,1.275-6.671,3.855-8.399
			c1.359-0.907,2.742-1.308,4.5-1.308C511.531,119.754,513.555,120.472,515.178,121.888L515.178,121.888z"/>
		<polygon fill="#919395" points="520.787,120.031 531.33,120.031 530.854,123.072 524.514,123.072 524.514,127.347 
			529.814,127.347 529.814,130.387 524.568,130.387 524.568,135.345 531.572,135.345 531.572,138.542 520.787,138.542 
			520.787,120.031 		"/>
		<path fill="#919395" d="M548.895,121.34l-1.756,2.668c-1.68-1.017-2.934-1.409-4.322-1.409c-1.523,0-2.588,0.872-2.588,2.127
			c0,0.962,0.506,1.441,2.053,1.869l2.246,0.61c3.035,0.824,4.684,2.775,4.684,5.519c0,3.76-3.031,6.237-7.648,6.237
			c-2.105,0-4.455-0.615-6.316-1.678l1.385-2.905c1.73,0.898,3.223,1.488,5.092,1.488c2.139,0,3.26-0.873,3.26-2.534
			c0-1.189-0.777-1.969-2.432-2.396l-2.055-0.554c-1.84-0.509-2.988-1.234-3.652-2.353c-0.504-0.824-0.771-1.78-0.771-2.822
			c0-3.387,2.717-5.732,6.637-5.732C544.982,119.475,547.27,120.173,548.895,121.34L548.895,121.34z"/>
		<polygon fill="#221F1F" points="444.01,146.113 457.354,146.113 456.742,149.195 452.322,149.195 452.322,164.624 
			448.539,164.624 448.539,149.195 444.01,149.195 444.01,146.113 		"/>
		<path fill="#221F1F" d="M464.57,153.687c0.344-1.384,0.877-3.568,0.877-3.568s0.559,2.43,0.746,3.284
			c0.398,1.779,1.012,3.724,1.012,3.724h-3.621C463.984,155.9,464.223,155.02,464.57,153.687L464.57,153.687z M457.486,164.624
			h3.885l1.307-4.408h5.434l1.305,4.408h3.992l-5.83-18.577h-4.021L457.486,164.624L457.486,164.624z"/>
		<path fill="#221F1F" d="M477.547,146.113h4.119l3.557,7.397c0.939,1.979,1.66,3.923,2.031,5.248
			c-0.133-1.436-0.264-3.807-0.293-5.085l-0.078-7.561h3.529v18.511h-3.879l-3.184-7.091c-1.016-2.315-2.166-4.923-2.514-6.069
			c0.135,1.519,0.162,3.7,0.188,5.242l0.107,7.918h-3.584V146.113L477.547,146.113z"/>
		<path fill="#221F1F" d="M496.775,146.113h4.117l3.559,7.397c0.939,1.979,1.662,3.923,2.033,5.248
			c-0.135-1.436-0.266-3.807-0.293-5.085l-0.078-7.561h3.527v18.511h-3.879l-3.184-7.091c-1.016-2.315-2.166-4.923-2.512-6.069
			c0.131,1.519,0.16,3.7,0.184,5.242l0.109,7.918h-3.584V146.113L496.775,146.113z"/>
		<polygon fill="#221F1F" points="514.32,146.113 527.662,146.113 527.049,149.195 522.633,149.195 522.633,164.624 
			518.848,164.624 518.848,149.195 514.32,149.195 514.32,146.113 		"/>
		<polygon fill="#221F1F" points="531.916,146.113 542.463,146.113 541.98,149.148 535.646,149.148 535.646,153.423 
			540.945,153.423 540.945,156.464 535.701,156.464 535.701,161.421 542.703,161.421 542.703,164.624 531.916,164.624 
			531.916,146.113 		"/>
		<polygon fill="#221F1F" points="547.93,146.113 551.738,146.113 551.738,154.555 557.01,146.113 561.594,146.113 555.68,154.688 
			562.26,164.624 557.359,164.624 551.738,154.952 551.738,164.624 547.93,164.624 547.93,146.113 		"/>
		<path fill="#221F1F" d="M566.816,146.113h4.119l3.561,7.397c0.936,1.979,1.66,3.923,2.031,5.248
			c-0.133-1.436-0.268-3.807-0.291-5.085l-0.08-7.561h3.527v18.511h-3.877l-3.186-7.091c-1.016-2.315-2.164-4.923-2.512-6.069
			c0.133,1.519,0.16,3.7,0.186,5.242l0.105,7.918h-3.584V146.113L566.816,146.113z"/>
		<polygon fill="#221F1F" points="586.049,146.113 589.938,146.113 589.938,164.624 586.049,164.624 586.049,146.113 		"/>
		<polygon fill="#221F1F" points="596.293,146.113 600.105,146.113 600.105,154.555 605.377,146.113 609.955,146.113 
			604.045,154.688 610.621,164.624 605.721,164.624 600.105,154.952 600.105,164.624 596.293,164.624 596.293,146.113 		"/>
		<polygon fill="#221F1F" points="615.115,146.113 625.66,146.113 625.18,149.148 618.846,149.148 618.846,153.423 624.143,153.423 
			624.143,156.464 618.898,156.464 618.898,161.421 625.902,161.421 625.902,164.624 615.115,164.624 615.115,146.113 		"/>
		<path fill="#221F1F" d="M635.92,149.095c0.904,0,1.672,0.101,2.1,0.263c0.875,0.346,1.326,1.117,1.326,2.265
			c0,0.777-0.264,1.441-0.717,1.86c-0.506,0.453-1.195,0.618-2.791,0.618h-1.25l0.027-5.006H635.92L635.92,149.095z
			 M630.953,164.624h3.635v-7.727c0.295,0.027,0.398,0.074,0.586,0.153c0.635,0.32,1.223,1.201,3.057,4.532
			c0.721,1.309,1.01,1.815,1.729,3.041h4.395c0,0-3.383-5.865-4.447-7.19c-0.238-0.32-0.396-0.483-0.77-0.78
			c2.289-0.056,4.127-2.344,4.127-5.114c0-3.244-2.156-5.426-5.43-5.426l-6.881-0.025V164.624L630.953,164.624z"/>
		<polygon fill="#221F1F" points="445.66,172.258 455.688,172.258 455.26,175.266 449.377,175.266 449.377,179.505 454.088,179.505 
			454.088,182.539 449.377,182.539 449.377,190.693 445.66,190.693 445.66,172.258 		"/>
		<path fill="#221F1F" d="M470.279,177.168c0.32,1.043,0.48,2.396,0.48,4.294c0,4.722-1.092,6.698-3.664,6.698
			c-0.875,0-1.617-0.208-2.203-0.645c-1.088-0.823-1.648-2.796-1.648-5.998c0-2.243,0.293-3.867,0.932-5.068
			c0.502-0.988,1.619-1.632,2.865-1.632C469.008,174.817,469.988,176.234,470.279,177.168L470.279,177.168z M463.273,172.853
			c-2.635,1.457-4.18,4.661-4.18,8.665c0,2.721,0.719,5.072,2.131,6.879c1.41,1.836,3.217,2.615,6.006,2.615
			c1.541,0,2.572-0.243,3.689-0.854c2.658-1.489,4.121-4.611,4.121-8.798c0-5.818-3.031-9.421-7.945-9.421
			C465.715,171.939,464.361,172.266,463.273,172.853L463.273,172.853z"/>
		<path fill="#221F1F" d="M485.203,175.17c0.906,0,1.68,0.108,2.104,0.265c0.877,0.345,1.326,1.117,1.326,2.261
			c0,0.773-0.262,1.445-0.717,1.869c-0.506,0.456-1.195,0.61-2.789,0.61h-1.25l0.027-5.005H485.203L485.203,175.17z
			 M480.244,190.693h3.633v-7.722c0.289,0.028,0.398,0.082,0.586,0.165c0.637,0.316,1.223,1.197,3.057,4.522
			c0.717,1.307,1.01,1.815,1.729,3.034h4.395c0,0-3.383-5.853-4.451-7.186c-0.238-0.325-0.396-0.482-0.771-0.778
			c2.295-0.049,4.129-2.338,4.129-5.107c0-3.251-2.156-5.432-5.428-5.432l-6.877-0.027V190.693L480.244,190.693z"/>
		<path fill="#221F1F" d="M504.119,175.359c0.828,0,1.227,0.102,1.549,0.237c0.643,0.317,1.074,1.084,1.074,1.862
			c0,0.739-0.457,1.646-0.965,1.91c-0.322,0.19-0.725,0.237-1.605,0.237h-2.225v-4.247H504.119L504.119,175.359z M498.285,190.693
			h5.834c1.014,0,1.789-0.026,2.379-0.054c3.25-0.209,4.85-2.555,4.85-5.107c0-2.411-1.197-3.9-3.674-4.646
			c0.85-0.271,1.172-0.453,1.703-0.961c0.799-0.792,1.252-1.862,1.252-3.109c0-1.327-0.479-2.391-1.52-3.298
			c-1.119-0.989-2.289-1.327-4.564-1.327h-6.26V190.693L498.285,190.693z M504.33,182.675c0.857,0,0.992,0.026,1.447,0.155
			c0.801,0.291,1.359,1.199,1.359,2.256c0,0.881-0.395,1.728-0.961,2.147c-0.426,0.291-0.961,0.426-1.734,0.426h-2.439v-4.984
			H504.33L504.33,182.675z"/>
		<path fill="#221F1F" d="M515.768,172.19h3.805v12.165c0,1.388,0.055,1.713,0.322,2.213c0.43,0.827,1.314,1.28,2.545,1.28
			c1.635,0,2.676-0.799,2.842-2.161c0.049-0.398,0.049-0.664,0.049-1.646V172.19h3.781v12.461c0,1.762-0.025,2.108-0.289,2.9
			c-0.482,1.468-2.293,3.494-6.303,3.494c-2.84,0-4.891-0.853-5.955-2.479c-0.611-0.961-0.797-1.706-0.797-3.489V172.19
			L515.768,172.19z"/>
		<path fill="#221F1F" d="M535.072,172.19h4.115l3.561,7.402c0.936,1.97,1.658,3.915,2.029,5.248
			c-0.133-1.441-0.266-3.813-0.289-5.092l-0.082-7.559h3.529v18.503h-3.877l-3.184-7.077c-1.018-2.316-2.168-4.932-2.514-6.076
			c0.133,1.518,0.158,3.706,0.186,5.242l0.104,7.911h-3.578V172.19L535.072,172.19z"/>
		<path fill="#221F1F" d="M559.693,175.225c1.473,0,2.33,0.528,2.945,1.536c0.75,1.227,0.938,3.041,0.938,5.201
			c0,3.908-1.123,5.697-3.59,5.697h-2.006v-12.435H559.693L559.693,175.225z M554.195,190.693h4.504c1.098,0,1.982-0.054,2.68-0.102
			c1.74-0.189,3.393-1.145,4.512-2.661c1.225-1.706,1.861-3.788,1.861-6.312c0-3.333-0.824-5.704-2.525-7.382
			c-1.145-1.09-2.48-1.708-4.061-1.837c-0.752-0.054-2.17-0.108-3.24-0.108h-3.73V190.693L554.195,190.693z"/>
	</g>
</g>
<g>
	<g>
		<path fill="#221F1F" d="M109.921,14.844c-0.115,0.35,0.228,0.35,0.457,0.35c2.518-0.803,5.607,0.111,8.466,0.225
			c26.311,2.854,51.366,20.589,63.261,45.069c7.895,15.789,10.868,36.045,6.753,54.568c-0.231,1.719-1.146,3.316-0.803,5.265
			c7.436,3.437,15.218,6.298,22.765,9.496c1.03,0.461,0.574,1.606,0.458,2.402c-5.834,16.129-14.416,31.574-28.485,43.813
			c-4.919-1.947-8.12-6.514-12.697-9.153l-1.03-0.11c-5.721,4.118-11.556,8.119-17.73,11.556
			c-12.356,6.751-26.54,9.95-41.299,10.179c-3.546-0.453-6.863,1.146-9.952-0.343c-19.335-1.939-36.268-9.606-51.251-22.077
			l-1.488,0.343l-11.556,9.147c-2.859-0.686-4.804-3.771-6.979-5.72c-10.181-11.897-18.074-24.705-22.193-39.234
			c-0.227-1.264,1.03-1.599,1.833-2.06c6.06-1.829,11.552-5.153,17.731-6.751c1.141-1.378,3.889-0.916,3.774-3.199
			c-3.548-13.385-3.548-29.402,0-42.676c5.49-23.336,25.283-46.217,48.048-55.029C87.954,17.246,98.595,14.62,109.921,14.844
			L109.921,14.844z"/>
		<path fill="#FFFFFF" d="M179.13,64.495c6.867,15.216,9.27,34.208,4.808,51.251c-0.115,1.488-1.26,3.088-2.858,1.942l-4.92-2.171
			c-0.688-0.686,0.112-1.607-0.23-2.403c-3.205-3.437-7.552-5.146-10.41-8.692l0.341-8.812c3.548-2.052,7.21-3.428,10.869-5.146
			l0.573-1.035c-0.916-5.375-1.488-10.975-3.659-15.78l-1.146-0.914l-11.667,0.225l-1.03-1.026c-1.718-3.548-3.89-6.977-6.18-10.3
			c1.372-3.777,3.889-7.087,5.606-10.753c-0.114-2.402-3.204-4.349-4.919-5.83c-2.858-2.64-5.948-5.383-9.381-6.982l-2.29,0.914
			l-8.006,6.403c-3.204-0.335-6.064-2.283-9.153-3.078c-1.6-0.58-3.889-0.35-4.574-2.18l-2.632-11.095l-1.029-0.804
			c-5.377-0.571-11.557-1.144-16.817,0.113l-1.146,1.375L96.42,40.7c-2.287,1.257-4.804,1.71-7.09,2.632
			c-2.406,0.571-4.235,2.745-6.867,2.053c-2.86-2.283-5.377-4.915-8.353-7.317l-1.598,0.11c-5.035,2.753-9.727,7.207-13.729,11.445
			l0.227,1.368c1.488,3.437,4.232,6.293,5.15,9.958c-0.688,2.521-2.975,4.342-4.005,6.634c-1.486,1.718-1.372,4.923-4.004,5.151
			l-10.41-0.69c-1.373,0.229-1.718,1.829-2.287,2.861c-1.376,4.917-3.09,10.07-2.862,15.327c1.602,1.376,3.546,1.837,5.379,2.633
			c2.173,1.487,6.976,1.257,6.177,5.377c-0.458,2.401,0.799,5.376-0.343,7.779l-9.838,5.948c-0.688,0.802-0.116,2.059-0.572,2.975
			c-1.944,1.257-4.235,2.059-6.522,2.514l-0.914-0.908c-3.548-14.649-3.316-32.148,2.171-45.874
			C44.486,44.358,71.368,22.74,98.48,19.76c23.109-2.974,44.845,3.897,61.893,18.88C168.494,46.188,174.672,54.889,179.13,64.495
			L179.13,64.495z"/>
		<path fill="#FFFFFF" d="M114.498,33.725c0.915,3.196,1.488,6.633,2.287,9.95c2.06,2.283,5.492,1.947,8.236,2.975l10.184,4.342
			c3.316-1.599,6.06-4.914,9.149-7.088c2.287-0.229,3.891,1.719,5.719,3.088c1.03,1.368,3.09,2.179,3.321,4
			c-1.261,3.555-3.548,6.641-5.149,9.958c0,2.283,2.632,3.889,3.546,5.949c2.287,3.204,3.89,6.521,5.492,9.949l1.257,0.804
			l10.868-0.232c1.829,1.6,1.488,4.463,2.291,6.635c0.111,1.033,0.799,2.179,0.227,3.204l-10.065,4.463l-0.803,0.914
			c-0.227,4.693,0.115,9.384-0.685,13.847c0.685,1.829,2.629,2.625,4.116,3.771c1.829,1.718,4.461,2.752,5.833,4.923
			c-0.227,1.257-0.227,2.856-1.486,3.435c-2.518-0.46-4.688-1.725-6.976-2.632c-1.146-0.119-2.175-1.146-3.436-0.685
			c-2.628,5.488-5.377,10.863-9.266,15.78c-13.385,16.249-34.318,22.882-54.567,17.274c-3.662-1.257-7.437-2.401-10.642-4.692
			c-11.096-5.6-20.245-17.037-24.48-28.138c-0.799-0.916-2.171-0.573-2.974-0.114l-7.895,2.864c-1.257-0.81-1.372-2.409-1.486-3.896
			c1.486-1.718,3.662-2.624,5.722-3.54c1.372-1.264,3.316-1.375,4.347-3.212c-0.572-4.685-1.146-9.489-0.688-14.411l-1.604-1.6
			l-9.381-4.008c-1.142-1.942,0.919-3.317,0.688-5.265c0.458-1.941,0.343-4.231,2.176-5.488c3.89,0.112,7.436,0.571,11.211,0.35
			c2.632-3.435,3.772-7.667,6.633-11.103c0.919-2.061,4.808-3.889,2.747-6.411l-4.577-8.23c0.115-2.976,3.663-4.581,5.723-6.293
			c1.257-0.571,2.172-2.177,3.889-1.604l8.236,6.982c3.09-0.118,5.606-2.402,8.581-3.204c2.976-1.257,6.177-1.712,9.267-2.633
			l0.799-1.369c1.029-3.436,1.261-7.094,2.633-10.41c3.201-0.914,6.747-0.914,10.064-0.454L114.498,33.725L114.498,33.725z"/>
		<path fill="#221F1F" d="M151.906,72.506c1.488,2.624,2.402,5.375,3.891,7.889c2.06,7.892,3.431,16.82,1.944,25.284
			c-2.518,15.444-13.728,31.23-28.942,37.404c-14.416,7.214-33.865,4.693-46.904-3.889C63.816,127.527,56.038,106.369,60.73,85.43
			c1.599-3.437,1.829-6.976,3.658-10.182c9.039-18.418,28.374-29.745,49.307-27.685c10.069,0.914,18.992,5.146,26.771,11.325
			C145.043,62.777,149.043,67.583,151.906,72.506L151.906,72.506z"/>
		<path fill="#FFFFFF" d="M142.294,66.444c11.326,12.121,14.301,30.541,8.924,46.209c-4.918,14.874-19.562,28.035-35.121,29.753
			c-18.647,2.856-35.807-5.497-45.644-21.172c-4.12-6.179-5.95-13.267-6.749-20.813c0.111-5.726,0.343-11.332,1.714-16.702
			c1.145-3.324,2.859-6.41,4.462-9.615c0.458-0.803,1.029-1.598,1.257-2.283c5.723-8.47,14.53-15.333,24.142-17.966
			c8.92-3.316,20.934-2.863,29.627,0.691C131.201,57.284,137.375,60.719,142.294,66.444L142.294,66.444z"/>
		<path fill="#221F1F" d="M113.123,59.923c2.517,2.854,5.948,3.658,8.582,5.948c0.688,1.823,0.114,3.771,0.114,5.712l-0.804,0.69
			l-6.862,0.343l-0.458,1.257c-0.227,10.41,0.115,20.367-0.343,30.549c-0.229,0.571-0.688,1.375-1.371,1.257l-6.406-0.343
			c-1.376-1.605-0.915-4.119-0.915-6.29c-0.346-3.317,0.457-6.411,0.112-9.617l-0.227-16.128c-1.719-2.29-6.864,0.922-7.096-3.086
			l0.115-7.778l1.03-1.026c2.518-0.343,5.719,0.453,7.778-1.487C108.549,59.805,110.952,59.805,113.123,59.923L113.123,59.923z"/>
		<path fill="#FFFFFF" d="M117.472,67.128c0.227,0.455,0.458,0.909,0.227,1.369c-2.4,0.922-5.833-0.685-7.663,1.375
			c-0.456,8.812-0.229,18.65-0.114,27.796c-0.573,1.378,0.799,4.01-1.261,4.01l-0.458-1.034V70.326
			c-1.142-2.514-4.688-1.025-6.979-1.6c-0.342-1.144-0.569-2.52-0.227-3.657c2.175-0.685,5.034,0.454,6.633-1.719
			C111.635,62.324,114.268,65.642,117.472,67.128L117.472,67.128z"/>
		<path fill="#221F1F" d="M91.732,85.43c1.944,1.606,5.146,1.947,5.833,4.691c-0.342,1.83,0.801,4.231-1.145,5.147L89.9,95.497
			c-1.373,1.139-0.228,3.088-1.027,4.574l0.342,1.146l-0.342,26.539c-2.061,1.488-4.923,0.35-7.21,0.686
			c-0.684-0.111-1.257-0.914-1.486-1.6c0.114-10.182,0.341-20.935-0.115-31.002l-0.801-0.461l-5.49-0.225l-0.8-1.032l0.115-8.812
			L74,84.401c2.518-0.571,5.835,0.686,7.779-1.485c2.171,0.11,4.918-0.23,6.978,0.11L91.732,85.43L91.732,85.43z"/>
		<path fill="#221F1F" d="M137.718,82.916c2.405,2.514,5.379,3.777,8.239,5.606c1.257,1.486,0.572,4.112,0.572,5.949l-0.688,0.683
			l-6.979,0.574l-0.458,0.804c-0.227,10.292,0.115,20.702-0.343,31.224l-1.145,0.914c-2.517-0.459-6.291,0.923-7.551-1.597
			c0.345-10.299-0.343-20.249-0.227-30.438c-0.116-0.453-0.116-0.907-0.574-1.026c-2.175-0.803-6.063,1.145-6.521-1.94
			c-0.341-2.975,0-5.497,0.115-8.358c1.488-1.823,4.689-0.335,6.749-1.257C131.312,81.993,134.744,83.259,137.718,82.916
			L137.718,82.916z"/>
		<path fill="#FFFFFF" d="M93.446,90.694c0.23,0.914-0.914,0.914-1.486,0.914c-2.06,0.573-5.035-0.684-6.406,1.146
			c-0.686,10.18,0.114,20.933-0.228,31.455c-0.23,0.461-0.803,0.684-1.146,0.342c-0.688-10.745-0.115-20.703-0.457-31.344
			c-1.373-2.744-5.492-0.225-7.321-2.172c0-1.146-0.572-3.086,0.914-3.436c2.287,0.461,4.578-0.111,6.291-1.48
			C87.613,85.883,90.471,88.634,93.446,90.694L93.446,90.694z"/>
		<path fill="#FFFFFF" d="M141.954,90.009c0.572,0.343,0.572,0.798,0.572,1.369c-2.519,1.377-7.437-1.369-8.009,2.514
			c-0.343,10.182,0.114,20.249-0.115,30.206c0,0.23-0.343,0.684-0.685,0.573c-0.688,0.11-0.688-0.804-0.804-1.265
			c-0.115-9.949,0.458-20.36-0.115-30.311c-1.371-2.401-4.803-0.573-6.863-1.487c-0.8-0.802-0.457-2.401-0.457-3.322
			c1.487-1.028,3.432-0.225,5.149-0.797C134.631,83.83,138.406,88.634,141.954,90.009L141.954,90.009z"/>
		<path fill="#FFFFFF" d="M196.294,128.105l9.38,3.771l0.569,0.915c-3.543,10.181-8.463,19.677-15.557,28.259h-0.343
			c2.629-9.728,4.231-20.361,3.659-31.002c-0.685-2.292-3.201-1.942-4.689-3.094c-5.149-1.487-9.838-4.001-14.757-5.949
			c-0.345-0.224-0.345-1.027,0.115-1.146C182.105,121.92,188.972,125.467,196.294,128.105L196.294,128.105z"/>
		<path fill="#FFFFFF" d="M42.998,120.431c-5.948,2.864-12.013,5.154-18.077,7.675c-1.487,2.283-0.572,4.915-0.8,7.547
			c0.116,7.319,1.03,14.302,2.859,21.053l0.688,4.113c-4.809-4.462-7.667-10.3-10.757-15.788c-1.944-4.229-4.115-8.461-4.805-13.043
			l2.176-1.257c9.381-3.428,18.305-7.777,27.797-10.753h0.918V120.431L42.998,120.431z"/>
		<path fill="#FFFFFF" d="M56.496,120.209c3.889,9.035,11.324,18.071,19.563,24.025c14.528,10.41,36.49,14.302,53.538,6.634
			c13.271-4.581,25.741-17.162,31.345-30.087c1.487-0.804,2.747,0.572,4.119,0.803l22.994,9.266
			c0.571,0.796,0.114,1.941-0.113,2.744c-10.867,24.481-36.151,45.191-62.233,49.421c-35.695,6.635-69.898-8.692-89.805-38.898
			c-2.518-4.001-4.691-8.121-6.521-12.471c-0.228-1.368,1.261-1.486,1.944-1.94l24.254-9.608L56.496,120.209L56.496,120.209z"/>
		<path fill="#221F1F" d="M55.239,126.73c1.599,2.172,3.659,3.771,4.573,6.18c0,2.06-1.488,3.546-1.488,5.488
			c2.061,0.571,4.12-1.146,6.18-0.232l4.578,5.95l-0.231,1.032l-15.329,14.523c-1.03,0.686-1.83-0.571-2.629-1.136
			c-0.919-1.831-4.235-3.206-2.863-5.385c1.146-1.145,2.517-2.514,3.205-3.882c-1.945-0.572-4.462,0.796-5.949-0.922
			c-0.115-1.942,1.257-3.428,0.914-5.265c-2.174,0.237-4.004,2.863-6.175,2.18l-4.005-5.607c1.373-2.632,4.347-3.436,6.519-5.378
			c3.893-2.401,7.667-5.375,11.786-7.659L55.239,126.73L55.239,126.73z"/>
		<path fill="#221F1F" d="M173.528,132.33c0.685,1.606,0.571,3.665,0.571,5.377l0.801,0.459c2.286,0.574,5.376-0.795,6.862,1.146
			c-1.37,2.29-2.858,4.693-4.688,6.745c-2.29,0.69-5.149-0.224-7.436,0.81c-0.574,2.514,4.573,3.541,2.627,6.173
			c-1.486,1.604-2.743,3.547-4.573,4.692l-1.144-0.231c-5.263-5.033-10.526-9.606-16.019-14.761
			c-0.569-0.564-0.227-1.486,0.116-2.052l9.153-10.3c2.629-1.947,6.06-3.435,9.381-2.059
			C171.009,129.021,172.613,130.73,173.528,132.33L173.528,132.33z"/>
		<path fill="#FFFFFF" d="M56.038,133.476c-0.572,3.315-2.859,5.956-3.201,9.265l0.569,0.462c3.777,0.571,8.466-4.574,11.098,0.453
			l-0.229,1.034L53.635,155.1c-0.341,0.23-1.03,0.119-1.257-0.455l0.227-1.151l6.864-6.745c0.572-0.571,0.572-1.6-0.342-1.718
			c-0.343-0.11-0.457,0.343-0.572,0.455v-0.223c-2.633-0.114-5.834,0.571-8.582,0.11c-0.111-3.428,2.176-6.29,1.944-9.606
			c-1.141-0.916-2.286,0.453-3.316,0.914l-6.863,4.35c-0.573,0.111-1.257-0.111-1.257-0.804v-0.342
			c4.231-3.204,8.578-5.948,12.925-8.812C54.892,130.962,55.35,132.567,56.038,133.476L56.038,133.476z"/>
		<path fill="#FFFFFF" d="M170.095,133.476c0.801,2.177,0.227,4.805-0.345,6.982c1.259,1.487,3.777,0.684,5.491,1.145
			c0.23,0.573-0.342,1.257-0.915,1.369c-3.658,0-7.777-0.231-9.607,3.776c-0.23,2.171,2.744,3.437,3.316,5.259
			c-0.229,0.691-1.146,1.263-1.718,0.691c-3.774-3.665-8.121-6.976-11.438-11.096l0.458-1.145
			C159.685,137.142,164.262,126.389,170.095,133.476L170.095,133.476z"/>
		<path fill="#221F1F" d="M168.723,135.767c0.8,4.118-3.204,6.179-5.491,9.153c-2.29,0-4.119-2.514-5.491-4.001
			c1.146-2.521,3.432-4.35,5.146-6.409C164.489,132.567,167.806,133.476,168.723,135.767L168.723,135.767z"/>
		<path fill="#FFFFFF" d="M164.831,137.826c-0.111,1.025-1.026,2.171-2.172,2.289C162.886,139.194,163.804,137.944,164.831,137.826
			L164.831,137.826z"/>
		<path fill="#FFFFFF" d="M189.314,142.058c-0.803,9.949-2.974,19.333-7.32,27.796c-0.458,0.461-1.03-0.224-1.602-0.453
			c-2.402-2.172-5.15-3.889-7.207-6.18l0.569-1.488c6.18-6.179,10.642-13.035,15.218-19.906L189.314,142.058L189.314,142.058z"/>
		<path fill="#FFFFFF" d="M30.412,143.773c3.774,5.831,7.779,11.78,12.929,16.815c0.685,0.802,1.715,1.718,1.146,2.743
			c-2.634,2.18-5.149,4.7-8.124,6.068l-0.458-0.111c-3.316-8.239-5.834-16.821-6.979-25.969l0.229-0.914L30.412,143.773
			L30.412,143.773z"/>
		<path fill="#221F1F" d="M79.95,150.519c1.713,2.061,7.32,1.949,5.376,5.726c-0.803,1.139-1.003,3.485-3.349,3.317l-4.776-2.604
			c-1.458,2.492,5.549,3.204,3.29,7.98c-2.601,1.089-7.035-3.346-7.95-2.347c-0.23-0.224-0.314,1.09-0.66,1.09
			c1.718,1.487,4.291,3.197,6.581,4.229c1.257,2.174-1.146,4.01-2.29,5.72l-0.8,0.573c-5.149-2.283-10.067-5.036-14.642-8.692
			c-2.06-1.377,0.342-2.976,0.8-4.344c3.661-4.924,6.748-10.412,10.637-14.991C75.03,146.973,77.316,149.27,79.95,150.519
			L79.95,150.519z"/>
		<path fill="#FFFFFF" d="M81.207,154.869v0.573c-2.745-0.112-4.578-3.317-7.207-2.402c-1.029,1.257-2.747,2.633-2.289,4.232
			c1.26,2.178,4.004,1.946,4.918,4.118c-2.056,0.118-3.889-1.604-5.834-2.29c-1.944,0.231-2.4,2.408-3.546,3.547
			c-0.343,0.685-0.343,1.257,0,1.948l7.094,4.462v0.685c-2.632,0-4.578-2.29-6.864-3.436c-1.03-0.795-2.517-1.138-3.09-2.514
			l0.573-1.599c2.517-4.001,5.377-7.778,8.009-11.676l1.372,0.237L81.207,154.869L81.207,154.869z"/>
		<path fill="#221F1F" d="M131.773,162.075c-1.03,2.06-3.777,1.494-5.492,2.408l-0.346,0.908c-0.111,5.033,1.718,9.154,1.603,14.189
			c-0.115,0.572-0.572,1.144-1.257,1.263c-2.29,0.334-4.576,0.566-6.863,0.566c-1.604-1.6-1.029-4.113-1.604-6.292
			c-0.229-3.086-0.803-5.95-1.486-8.812c-1.945-1.368-6.292,1.265-6.637-2.284c0.571-1.828-1.488-5.033,1.372-5.607
			c6.063-0.34,12.013-0.795,17.504-2.514C131.773,156.016,130.969,159.904,131.773,162.075L131.773,162.075z"/>
		<path fill="#221F1F" d="M106.946,160.134c-0.803,1.941-1.829,4.001-3.773,5.258c-1.832-0.796-3.547-1.822-5.723-1.822v0.335
			c3.548,1.607,8.01,3.436,8.809,7.898c0.458,2.854-0.799,5.604-3.201,7.316c-4.004,3.437-10.41,1.837-14.757,0
			c-1.604-1.026-4.351-2.626-4.351-4.685c1.261-1.375,2.518-3.206,4.351-3.777c2.402,1.146,4.573,3.204,7.548,2.632
			c0.688-0.229,0.572-0.795,0.458-1.368c-3.544-1.606-9.036-3.555-8.92-8.589c0.111-2.975,2.171-5.712,4.918-6.745
			c4.919-1.145,10.408,0.118,14.412,2.975L106.946,160.134L106.946,160.134z"/>
		<path fill="#FFFFFF" d="M102.37,160.818c0,0.35-0.342,0.572-0.573,0.453c-2.628-0.564-6.406-2.171-8.351,0.58
			c-0.684,0.573-0.457,1.83-0.227,2.514c2.518,4.12,11.667,3.087,9.493,10.292c-1.257,3.093-4.689,3.324-7.663,3.324
			c-2.518-0.231-4.92-1.033-6.749-2.633v-0.341c2.743,0.684,5.376,2.171,8.462,1.598c1.833-0.341,3.321-1.948,3.548-3.771
			c-0.801-6.291-12.812-3.777-8.809-11.785c1.718-2.514,5.149-2.061,7.895-1.488C100.31,160.022,101.685,159.786,102.37,160.818
			L102.37,160.818z"/>
		<path fill="#FFFFFF" d="M127.538,160.134c-0.115,0.795-1.03,0.795-1.603,1.034c-1.372,0.223-3.087,0.104-3.774,1.592
			c-0.229,5.151,1.488,9.957,1.257,14.872c-0.111,0.35-0.684,0.118-1.025,0.237c-1.833-4.58-1.488-10.076-2.863-14.871
			c-1.599-1.489-4.23,0.334-6.177-0.691c-0.341-1.035,0.916-0.916,1.488-1.035c4.23-0.343,8.466-0.914,12.582-1.6L127.538,160.134
			L127.538,160.134z"/>
		<path fill="#221F1F" d="M141.258,149.459c2.618-0.565,5.118-5.586,7.562-2.11c0.639,1.236,2.625,2.508,1.381,4.503l-4.521,3.025
			c1.529,2.45,5.415-3.429,8.597,0.788c-0.245,2.808-6.229,4.68-5.769,5.956c-0.307,0.099,0.817,0.783,0.656,1.083
			c2.116-0.823,4.828-2.312,6.805-3.854c2.51-0.112,3.017,2.87,4.005,4.678l0.136,0.972c-4.417,3.505-9.133,6.584-14.5,8.938
			c-2.171,1.187-2.475-1.684-3.48-2.724c-2.655-5.523-6.088-10.809-8.337-16.382C135.833,152.167,138.922,151.204,141.258,149.459
			L141.258,149.459z"/>
		<path fill="#FFFFFF" d="M145.692,150.358l0.506,0.266c-1.375,2.381-5.062,2.514-5.475,5.271c0.64,1.495,1.059,3.652,2.688,3.987
			c2.511-0.105,3.583-2.64,5.933-2.445c-0.855,1.879-3.227,2.704-4.734,4.107c-0.701,1.829,1.012,3.247,1.494,4.79
			c0.45,0.62,0.956,0.887,1.722,0.899l7.247-4.211l0.607,0.322c-1.222,2.331-4.151,2.989-6.229,4.483
			c-1.188,0.537-2.178,1.697-3.662,1.571l-1.152-1.25c-2.38-4.092-4.395-8.373-6.619-12.513l0.838-1.111L145.692,150.358
			L145.692,150.358z"/>
	</g>
</g>
</svg>
